<?xml version="1.0" standalone="no"?>
<!DOCTYPE svg PUBLIC "-//W3C//DTD SVG 20010904//EN"
 "http://www.w3.org/TR/2001/REC-SVG-20010904/DTD/svg10.dtd">
<svg version="1.0" xmlns="http://www.w3.org/2000/svg"
 width="384.000000pt" height="384.000000pt" viewBox="0 0 384.000000 384.000000"
 preserveAspectRatio="xMidYMid meet">
<metadata>
Created by potrace 1.11, written by Peter Selinger 2001-2013
</metadata>
<g transform="translate(0.000000,384.000000) scale(0.100000,-0.100000)"
fill="#000000" stroke="none">
<path d="M0 1920 l0 -1251 423 4 c232 2 438 7 457 11 88 18 228 59 297 86 279
112 507 325 643 603 l48 99 -1 -401 -2 -401 278 0 277 0 0 500 0 500 53 1
c283 2 760 -1 764 -5 4 -3 6 -229 6 -501 l0 -495 294 0 293 0 1 323 c0 177 1
739 2 1249 l2 928 -296 0 -296 0 -1 -477 c0 -263 -1 -487 -1 -498 -1 -20 -8
-20 -408 -20 l-408 0 -3 498 -2 497 -275 0 -275 0 -1 -27 c0 -16 -1 -196 -1
-402 l0 -374 -26 59 c-136 307 -385 539 -705 658 -202 75 -231 79 -709 83
l-428 4 0 -1251z m765 986 c101 -9 130 -14 225 -43 224 -67 415 -210 546 -409
30 -45 54 -85 54 -88 0 -3 11 -29 24 -58 53 -116 75 -244 71 -408 -1 -69 -5
-139 -8 -156 -64 -356 -322 -648 -673 -763 -131 -42 -214 -51 -495 -51 -230 0
-249 1 -250 18 -1 21 -1 1944 0 1954 1 4 13 8 29 10 43 5 399 0 477 -6z"/>
</g>
</svg>
